<svg width="103" height="36" viewBox="0 0 103 36" fill="none" xmlns="http://www.w3.org/2000/svg">
<path d="M77 11L84.6389 33L90.1944 23.6667L96.4444 33L102 11" stroke="white" stroke-width="1.2" stroke-linecap="round"/>
<path d="M70.4708 16.3417C70.4856 14.8846 70.4437 13.3278 70.3383 11.6667L70.4708 16.3417Z" fill="white"/>
<path d="M69.6716 11C35.005 29 73.005 53.6667 70.3383 11.6667L71 35" stroke="white" stroke-width="1.2" stroke-linecap="round"/>
<line x1="44.7667" y1="11.6" x2="44.7667" y2="34.4" stroke="white" stroke-width="1.2" stroke-linecap="round"/>
<path d="M45.1667 21C48.9 13 52.9444 11.8889 54.5 12.3333" stroke="white" stroke-width="1.2" stroke-linecap="round"/>
<mask id="path-6-inside-1" fill="white">
<path d="M19.6372 0.0765415C24.8089 0.096842 29.7615 1.96004 33.4056 5.25626C37.0496 8.55247 39.0866 13.0117 39.0684 17.6529C39.0502 22.2942 36.9783 26.7373 33.3084 30.0048C29.6386 33.2723 24.6715 35.0966 19.4999 35.0763L19.5685 17.5764L19.6372 0.0765415Z"/>
</mask>
<path d="M19.6372 0.0765415C24.8089 0.096842 29.7615 1.96004 33.4056 5.25626C37.0496 8.55247 39.0866 13.0117 39.0684 17.6529C39.0502 22.2942 36.9783 26.7373 33.3084 30.0048C29.6386 33.2723 24.6715 35.0966 19.4999 35.0763L19.5685 17.5764L19.6372 0.0765415Z" stroke="white" stroke-width="2.4" mask="url(#path-6-inside-1)"/>
<path d="M33 17.5C33 20.5148 31.8652 23.4192 29.8213 25.6354C27.7774 27.8516 24.9742 29.2173 21.9693 29.4608C18.9643 29.7043 15.9778 28.8078 13.6038 26.9496C11.2297 25.0914 9.64204 22.4077 9.15659 19.4323C8.67114 16.4568 9.32347 13.4076 10.9838 10.8912C12.6442 8.37481 15.1909 6.57557 18.1174 5.85136C21.0439 5.12716 24.1359 5.53106 26.7781 6.98273C29.4204 8.43439 31.4195 10.8274 32.3777 13.6859" stroke="#684CD6" stroke-width="2" stroke-linecap="round"/>
<line x1="31.8127" y1="14.1683" x2="5.76827" y2="8.58733" stroke="#684CD6" stroke-width="2" stroke-linecap="round"/>
</svg>
