<svg width="717" height="142" viewBox="0 0 717 142" fill="none" xmlns="http://www.w3.org/2000/svg">
<path d="M3 34L42 113L83 34H52.5" stroke="black" stroke-width="5"/>
<path d="M92 113L131.5 34L171 113" stroke="black" stroke-width="5"/>
<path d="M262 52C250 20.5 182 33.3404 182 53C182 82.5 255 60 262 93.5C257.5 121.5 186 117.5 182 93.5" stroke="black" stroke-width="5"/>
<line x1="364.5" y1="33" x2="364.5" y2="113" stroke="black" stroke-width="5"/>
<line x1="444.5" y1="33" x2="444.5" y2="113" stroke="black" stroke-width="5"/>
<line x1="362" y1="110.5" x2="442" y2="110.5" stroke="black" stroke-width="5"/>
<line x1="444.08" y1="34.3868" x2="404.08" y2="94.3867" stroke="black" stroke-width="5"/>
<line x1="272" y1="31.5" x2="352" y2="31.5" stroke="black" stroke-width="5"/>
<line x1="310" y1="113.001" x2="310" y2="33.9961" stroke="black" stroke-width="5"/>
<line x1="544.5" y1="33" x2="544.5" y2="113" stroke="#6968AB" stroke-width="5"/>
<line x1="542" y1="31.5" x2="622" y2="31.5" stroke="#6968AB" stroke-width="5"/>
<line x1="541.999" y1="71.233" x2="601.999" y2="71.233" stroke="#6968AB" stroke-width="5"/>
<line x1="542" y1="110.5" x2="622" y2="110.5" stroke="#6968AB" stroke-width="5"/>
<line x1="434" y1="2.50714" x2="572" y2="2.50714" stroke="#6968AB" stroke-width="5"/>
<line x1="501.363" y1="141.283" x2="501.363" y2="4.99998" stroke="#6968AB" stroke-width="5"/>
<line x1="634.5" y1="33" x2="634.5" y2="113" stroke="#6968AB" stroke-width="5"/>
<line x1="714.5" y1="33" x2="714.5" y2="113" stroke="#6968AB" stroke-width="5"/>
<line x1="632" y1="30.5" x2="712" y2="30.5" stroke="#6968AB" stroke-width="5"/>
<line x1="632" y1="110.5" x2="712" y2="110.5" stroke="#6968AB" stroke-width="5"/>
<line x1="715.253" y1="117.788" x2="672.253" y2="75.7884" stroke="#6968AB" stroke-width="5"/>
</svg>
