<svg height="512pt" viewBox="-39 0 512 512" width="512pt" xmlns="http://www.w3.org/2000/svg"><path d="m238.300781 306.839844c-20.242187 27.699218-41.855469 60.902344-41.480469 61.964844 13.089844 36.507812 15.949219 117.421874-63.628906 130.886718-18.292968 3.757813-35.15625 2.824219-50.804687-1.835937-47.261719-14.074219-77.125-60.640625-71.757813-109.660157 1.773438-16.203124 4.898438-28.988281 4.835938-33.410156 0-.03125 0-.058594 0-.089844-.042969-3.933593 1.519531 79.046876 81.707031 79.046876 42.386719-3.503907 56.785156-26.367188 56.347656-48.867188-.324219-16.71875-9.152343-32.070312-22.882812-41.613281-23.273438-16.171875-55.894531-24.304688-55.894531-24.304688s-6.410157-14.351562-9.886719-36.066406c0 0 18.832031 3.253906 23.183593 3.667969 56.945313 11.246094 63.886719-76.863282 21.796876-68.507813-21.402344 3.847657-64.617188 25.371094-64.617188 25.371094-7.007812-11.746094-17.585938-44.089844-24.65625-55.929687 0 0 15.898438-8.929688 26.28125-13.726563 22.902344-10.558594 46.875-16.835937 72.207031-15.484375 31.714844 1.683594 53.085938 19.855469 61.679688 50.601562 6.535156 23.359376-.8125 43.847657-12.191407 63.640626-6.496093 11.289062-28.453124 29.082031-30.527343 30.667968 9.53125 3.6875 28.722656 13.777344 37.703125 16.277344 0 0 40.597656-89.671875 105.25-112.203125 22.898437-7.976563 85.59375-25.148437 124.1875 40.238281 46.96875 79.574219 1.414062 165.523438-50.992188 195.320313-17.222656 9.792969-42.800781 16.714843-62.167968 12.539062-55.800782-12.042969-54.832032-75.304687-54.832032-75.304687-2.996094-13.800782 2.269532 52.683594 71.558594 28.054687 31.789062-13.535156 45.179688-49.554687 48.351562-82.261719.878907-9.078124.328126-18.269531-2.058593-27.074218-10.441407-38.503906-47.210938-52.03125-76.707031-35.402344" fill="#f48264"/><path d="m304.355469 466.585938c-4.976563 0-9.839844-.449219-14.472657-1.449219-26.257812-5.667969-45.46875-22.375-55.554687-48.320313-5.570313-14.332031-6.820313-27.707031-7.097656-33.675781-1.515625-6.0625-.289063-8.269531.582031-9.835937 2.023438-3.636719 6.109375-5.652344 10.226562-5.046876 7.015626 1.039063 8.429688 7.539063 8.894532 9.675782.140625.660156.21875 1.335937.226562 2.011718 1.40625 4.355469 5.328125 13.472657 14.589844 19.023438 10.523438 6.304688 25.101562 6.25 43.324219-.175781 32.847656-14.199219 40.34375-56.390625 42.042969-73.90625.808593-8.3125.214843-16.214844-1.757813-23.492188-3.699219-13.648437-11.222656-24.003906-21.753906-29.945312-9.273438-5.230469-20.164063-6.460938-30.664063-3.453125-1.085937.308594-2.175781.667968-3.234375 1.0625-5.171875 1.933594-10.933593-.695313-12.863281-5.871094-1.933594-5.175781.695312-10.933594 5.871094-12.867188 1.546875-.578124 3.136718-1.101562 4.726562-1.554687 15.683594-4.488281 32.019532-2.621094 45.992188 5.261719 15.078125 8.507812 26.167968 23.46875 31.230468 42.132812 2.605469 9.617188 3.402344 19.929688 2.359376 30.65625-4.328126 44.636719-24.152344 77.625-54.390626 90.496094-.183593.078125-.375.152344-.566406.222656-24.601562 8.742188-42.308594 6.835938-54.632812 1.546875 6.777344 11.6875 18.019531 22.480469 36.667968 26.503907 17.417969 3.753906 40.777344-3.304688 55.113282-11.457032 28.363281-16.125 51.769531-47.882812 61.089844-82.882812 6.308593-23.683594 9.039062-60.023438-13.765626-98.660156-30.351562-51.417969-77.8125-47.890626-112.28125-35.878907-59.78125 20.832031-99.046874 106.027344-99.4375 106.886719-2.035156 4.488281-7.046874 6.824219-11.785156 5.503906-6.179687-1.71875-15.441406-6.039062-24.402344-10.222656-5.511718-2.574219-10.722656-5.003906-14.230468-6.359375-3.375-1.308594-5.78125-4.332031-6.289063-7.914063-.515625-3.582031.949219-7.160156 3.824219-9.359374 4.53125-3.464844 23.035156-19.199219 27.929688-27.707032 12.675781-22.046875 16.035156-38.785156 11.230468-55.960937-7.519531-26.90625-25.703125-41.882813-52.578125-43.3125-21.625-1.152344-43.703125 3.617187-67.488281 14.582031-5.046875 2.332031-11.558594 5.738281-16.746094 8.527344.773438 1.46875 1.710938 3.285156 3.039063 5.859375l.304687.589843c2.535156 4.910157.609375 10.9375-4.300781 13.472657-4.90625 2.535156-10.9375.609375-13.472656-4.300781l-.304688-.589844c-4.1875-8.113282-4.1875-8.113282-7.574219-13.78125-1.386718-2.316406-1.773437-5.097656-1.078124-7.703125.691406-2.609375 2.410156-4.824219 4.765624-6.144531.660157-.375 16.363282-9.183594 26.988282-14.089844 26.820312-12.363282 51.972656-17.722656 76.933594-16.394532 35.730468 1.902344 60.867187 22.460938 70.773437 57.898438 8.078125 28.882812-2.785156 53.285156-13.152344 71.316406-4.226562 7.347656-13.113281 16.226563-20.617187 23.011719.167968.078125.335937.15625.503906.234375 4.535156 2.121094 9.425781 4.398438 13.625 6.195312 12.164062-23.605468 50.355469-89.402343 106.957031-109.125 58.707031-20.460937 107.035157-4.621093 136.085938 44.597657 26.328125 44.601562 23.160156 86.597656 15.867187 113.976562-10.648437 39.992188-37.671875 76.4375-70.527344 95.121094-14.417968 8.199219-35.367187 15.070313-54.746093 15.070313zm0 0"/><path d="m110.992188 512c-10.734376 0-21.253907-1.519531-31.460938-4.558594-51.632812-15.375-84.792969-65.984375-78.84375-120.335937.96875-8.839844 2.289062-16.496094 3.351562-22.644531.671876-3.878907 1.429688-8.273438 1.429688-9.539063-.003906-.050781-.003906-.089844-.003906-.136719-.054688-5.5 4.15625-9.996094 9.589844-10.21875 4.800781-.191406 9.960937 3.296875 10.402343 9.480469.835938 11.613281 8.195313 69.441406 71.300781 69.695313 30.597657-2.636719 47.199219-16.363282 46.765626-38.671876-.253907-13.125-7.203126-25.683593-18.59375-33.597656-21.433594-14.894531-52.300782-22.734375-52.609376-22.8125-2.980468-.746094-5.457031-2.820312-6.707031-5.625-.285156-.636718-6.988281-15.816406-10.628906-38.566406-.511719-3.1875.550781-6.425781 2.847656-8.695312 2.296875-2.269532 5.542969-3.289063 8.726563-2.738282 7.140625 1.230469 19.539062 3.292969 22.433594 3.570313.332031.03125.660156.078125.984374.144531 16.929688 3.34375 26.097657-4.382812 30.8125-11.449219 7.503907-11.25 7.492188-26.359375 2.777344-33.417969-1.609375-2.410156-4.585937-5.453124-11.785156-4.023437-.058594.011719-.113281.023437-.175781.03125-16.382813 2.949219-50.253907 18.671875-61.925781 24.484375-4.941407 2.460938-10.949219.449219-13.410157-4.496094-2.460937-4.941406-.449219-10.945312 4.492188-13.40625 1.816406-.90625 44.644531-22.152344 67.214843-26.25 13.386719-2.628906 25.128907 1.941406 32.21875 12.546875 9.796876 14.65625 8.605469 38.574219-2.769531 55.628907-11.195312 16.785156-29.710937 24.082031-50.867187 20.058593-1.933594-.214843-5.359375-.734375-9.011719-1.316406 1.671875 6.761719 3.433594 12.089844 4.675781 15.503906 10.464844 3.050781 34.976563 11.097657 54.125 24.40625 16.632813 11.558594 26.792969 30.113281 27.171875 49.628907.296875 15.125-4.890625 28.53125-14.992187 38.773437-11.457032 11.617187-28.457032 18.429687-50.53125 20.257813-.273438.019531-.546875.03125-.824219.03125-43.273437 0-65.773437-22.253907-77.136719-41.53125 1.066406 39.628906 26.953125 74.667968 65.207032 86.058593 14.789062 4.40625 29.816406 4.933594 45.941406 1.625.113281-.023437.226562-.046875.34375-.066406 23.816406-4.027344 41.097656-14.96875 51.363281-32.507813 14.929687-25.511718 12.808594-62.019531 4.519531-85.144531-1.738281-4.902343.367188-8.332031 3.855469-14.011719 2.0625-3.359374 4.980469-7.910156 8.433594-13.160156 7.90625-12.015625 17.300781-25.683594 25.777343-37.5 3.21875-4.488281 9.464844-5.519531 13.953126-2.296875 4.488281 3.21875 5.515624 9.464844 2.296874 13.953125-15.800781 22.03125-29.394531 42.804688-34.0625 50.515625 8.859376 28.125 9.871094 68.042969-7.511718 97.746094-13.371094 22.847656-35.277344 37.007813-65.117188 42.097656-8.105468 1.65625-16.132812 2.480469-24.042968 2.480469zm0 0"/><path d="m256.367188 293.386719c-.648438 0-1.3125-.070313-1.949219-.199219-.640625-.121094-1.273438-.320312-1.871094-.570312-.601563-.25-1.179687-.558594-1.730469-.917969-.539062-.359375-1.058594-.78125-1.519531-1.242188-.460937-.460937-.878906-.96875-1.238281-1.519531-.363282-.539062-.671875-1.121094-.921875-1.730469-.25-.597656-.441407-1.230469-.570313-1.871093-.128906-.636719-.199218-1.296876-.199218-1.949219 0-.648438.070312-1.308594.199218-1.949219s.320313-1.269531.570313-1.871094c.25-.609375.558593-1.1875.921875-1.730468.359375-.546876.777344-1.058594 1.238281-1.519532.460937-.457031.980469-.878906 1.519531-1.25.550782-.359375 1.128906-.660156 1.730469-.910156s1.230469-.449219 1.871094-.570312c1.289062-.257813 2.617187-.257813 3.90625 0 .644531.121093 1.273437.320312 1.871093.570312.601563.25 1.183594.550781 1.722657.910156.550781.371094 1.058593.792969 1.519531 1.25.46875.460938.878906.972656 1.25 1.519532.359375.539062.667969 1.121093.917969 1.730468.25.601563.441406 1.230469.570312 1.871094.132813.640625.191407 1.300781.191407 1.949219 0 .652343-.058594 1.3125-.191407 1.949219-.128906.640624-.320312 1.273437-.570312 1.871093-.25.609375-.558594 1.191407-.917969 1.730469-.371094.550781-.78125 1.058594-1.25 1.519531-.460938.460938-.96875.882813-1.519531 1.242188-.539063.359375-1.121094.667969-1.722657.917969-.597656.25-1.230468.449218-1.871093.570312-.648438.128906-1.296875.199219-1.957031.199219zm0 0"/><path d="m238.300781 10 39.644531 39.644531-39.644531 39.644531-39.644531-39.644531zm0 0" fill="#ffd876"/><path d="m238.300781 99.289062c-2.652343 0-5.195312-1.050781-7.070312-2.925781l-39.644531-39.648437c-3.90625-3.902344-3.90625-10.234375 0-14.140625l39.644531-39.644531c1.875-1.875 4.417969-2.929688 7.070312-2.929688 2.652344 0 5.195313 1.054688 7.070313 2.929688l39.648437 39.644531c1.875 1.875 2.929688 4.417969 2.929688 7.070312 0 2.652344-1.054688 5.195313-2.929688 7.070313l-39.648437 39.648437c-1.875 1.875-4.417969 2.925781-7.070313 2.925781zm-25.5-49.644531 25.5 25.503907 25.503907-25.503907-25.503907-25.5zm0 0"/><path d="m311.117188 75.039062c-9.148438 10.566407-22.894532 26.839844-33.609376 35.628907-26.789062 21.996093-56.449218 25.921875-88.121093 10.390625-11.167969-5.472656-21.40625-12.164063-30.269531-20.761719-2.878907-2.796875-6.464844 1.296875-4.667969 6.117187 10.285156 27.613282 29.453125 46.84375 56.199219 58.707032 23.1875 10.285156 46.308593 8.484375 69.675781-.011719 28.582031-10.390625 56.613281-32.894531 74.777343-57.074219.066407-.085937.128907-.171875.195313-.257812zm0 0" fill="#f79f8f"/><path d="m243.695312 182.167969c-12.910156.003906-25.210937-2.632813-37.097656-7.90625-29.847656-13.234375-50.546875-34.890625-61.519531-64.359375-2.613281-7.011719-.40625-14.785156 5.246094-18.476563 5.011719-3.269531 11.34375-2.589843 15.757812 1.695313 7.542969 7.316406 16.605469 13.519531 27.707031 18.957031 27.90625 13.6875 53.214844 10.695313 77.371094-9.136719 9.097656-7.464844 21.078125-21.339844 29.824219-31.472656l2.574219-2.976562c3.421875-3.953126 9.308594-4.601563 13.511718-1.488282l44.179688 32.738282c2.140625 1.585937 3.5625 3.960937 3.941406 6.601562.382813 2.636719-.304687 5.316406-1.90625 7.445312l-.109375.148438c-.015625.019531-.0625.082031-.078125.105469-20.457031 27.234375-50.121094 49.839843-79.355468 60.464843-14.046876 5.105469-27.34375 7.660157-40.046876 7.660157zm-68.367187-57.289063c9.515625 13.371094 22.546875 23.636719 39.375 31.101563 18.890625 8.375 38.65625 8.292969 62.207031-.269531 22.617188-8.222657 46.464844-25.480469 64.09375-46.078126l-28.386718-21.035156c-8.753907 10.09375-19.613282 22.292969-28.769532 29.800782-29.984375 24.625-64.171875 28.652343-98.863281 11.640624-3.367187-1.652343-6.582031-3.367187-9.65625-5.160156zm0 0"/></svg>