<svg height="512pt" viewBox="-6 0 512 512.00025" width="512pt" xmlns="http://www.w3.org/2000/svg"><path d="m213.109375 474h14.914063c32.945312 0 59.652343-26.703125 59.652343-59.640625v-126.730469h116.636719v144.171875c0 23.308594 18.894531 42.199219 42.203125 42.199219h44.738281s-28-16.925781-28-26.941406v-163.042969c0-32.941406-26.707031-59.644531-59.652344-59.644531h-122.421874v-131.753906h155c23.308593 0 42.207031-18.890626 42.207031-42.195313v-40.421875s-10.445313 28-20.460938 28h-184.695312c-32.945313 0-59.652344 26.703125-59.652344 59.640625v126.734375h-116.636719v-133.8125c0-29.03125-23.539062-52.5625-52.574218-52.5625h-34.367188s28 16.925781 28 26.941406v163.042969c0 32.941406 26.707031 59.644531 59.652344 59.644531h122.425781v131.753906h-155.003906c-23.308594 0-42.207031 18.890626-42.207031 42.199219v40.417969s10.445312-28 20.460937-28h74.054687" fill="#f48264"/><path d="m373.632812 160.800781c0 13.429688-10.882812 24.316407-24.3125 24.316407-13.429687 0-24.316406-10.886719-24.316406-24.316407 0-13.429687 10.886719-24.316406 24.316406-24.316406 13.429688 0 24.3125 10.886719 24.3125 24.316406zm0 0" fill="#ffd876"/><path d="m349.320312 195.113281c-18.921874 0-34.316406-15.390625-34.316406-34.3125 0-18.917969 15.394532-34.3125 34.316406-34.3125 18.921876 0 34.3125 15.394531 34.3125 34.3125 0 18.921875-15.390624 34.3125-34.3125 34.3125zm0-48.625c-7.898437 0-14.316406 6.421875-14.316406 14.3125 0 7.894531 6.421875 14.3125 14.316406 14.3125 7.890626 0 14.3125-6.417969 14.3125-14.3125.003907-7.890625-6.417968-14.3125-14.3125-14.3125zm0 0"/><path d="m176.25 160.800781c0 13.429688-10.886719 24.316407-24.3125 24.316407-13.429688 0-24.316406-10.886719-24.316406-24.316407 0-13.429687 10.886718-24.316406 24.316406-24.316406 13.425781 0 24.3125 10.886719 24.3125 24.316406zm0 0" fill="#ffd876"/><path d="m151.933594 195.113281c-18.921875 0-34.316406-15.390625-34.316406-34.3125 0-18.917969 15.394531-34.3125 34.316406-34.3125s34.316406 15.394531 34.316406 34.3125c0 18.921875-15.394531 34.3125-34.316406 34.3125zm0-48.625c-7.894532 0-14.316406 6.421875-14.316406 14.3125 0 7.894531 6.421874 14.3125 14.316406 14.3125 7.894531 0 14.316406-6.417969 14.316406-14.3125 0-7.890625-6.421875-14.3125-14.316406-14.3125zm0 0"/><path d="m373.632812 351.199219c0 13.429687-10.882812 24.316406-24.3125 24.316406-13.429687 0-24.316406-10.886719-24.316406-24.316406 0-13.429688 10.886719-24.316407 24.316406-24.316407 13.429688 0 24.3125 10.886719 24.3125 24.316407zm0 0" fill="#ffd876"/><path d="m349.320312 385.511719c-18.921874 0-34.316406-15.394531-34.316406-34.3125 0-18.921875 15.394532-34.3125 34.316406-34.3125 18.921876 0 34.3125 15.390625 34.3125 34.3125.003907 18.917969-15.390624 34.3125-34.3125 34.3125zm0-48.625c-7.898437 0-14.316406 6.417969-14.316406 14.3125 0 7.890625 6.421875 14.3125 14.316406 14.3125 7.890626 0 14.3125-6.421875 14.3125-14.3125.003907-7.894531-6.417968-14.3125-14.3125-14.3125zm0 0"/><path d="m176.25 351.199219c0 13.429687-10.886719 24.316406-24.3125 24.316406-13.429688 0-24.316406-10.886719-24.316406-24.316406 0-13.429688 10.886718-24.316407 24.316406-24.316407 13.425781 0 24.3125 10.886719 24.3125 24.316407zm0 0" fill="#ffd876"/><path d="m151.933594 385.511719c-18.921875 0-34.316406-15.394531-34.316406-34.3125 0-18.921875 15.394531-34.3125 34.316406-34.3125s34.316406 15.390625 34.316406 34.3125c0 18.917969-15.394531 34.3125-34.316406 34.3125zm0-48.625c-7.894532 0-14.316406 6.417969-14.316406 14.3125 0 7.890625 6.421874 14.3125 14.316406 14.3125 7.894531 0 14.316406-6.421875 14.316406-14.3125 0-7.894531-6.421875-14.3125-14.316406-14.3125zm0 0"/><path d="m22.875 512c-.589844 0-1.183594-.050781-1.78125-.160156-4.761719-.859375-8.226562-5.003906-8.226562-9.839844v-40.417969c0-28.785156 23.421874-52.199219 52.207031-52.199219h145.003906v-111.753906h-112.425781c-38.40625 0-69.648438-31.242187-69.648438-69.644531v-162.355469c-1.792968-3.761718-12.589844-12.675781-23.175781-19.074218-3.84375-2.320313-5.664063-6.917969-4.460937-11.242188 1.207031-4.324219 5.144531-7.3125 9.632812-7.3125h34.367188c34.503906 0 62.574218 28.066406 62.574218 62.5625v123.808594h96.636719v-116.730469c0-38.402344 31.246094-69.640625 69.652344-69.640625h8.496093c5.523438 0 10 4.476562 10 10 0 5.519531-4.476562 10-10 10h-8.496093c-27.378907 0-49.652344 22.269531-49.652344 49.640625v126.730469c0 5.523437-4.476563 10-10 10h-116.636719c-5.523437 0-10-4.476563-10-10v-133.808594c0-23.46875-19.097656-42.5625-42.574218-42.5625h-4.976563c5.894531 6.101562 8.609375 11.53125 8.609375 16.941406v163.042969c0 27.375 22.273438 49.644531 49.652344 49.644531h122.425781c5.519531 0 10 4.476563 10 10v131.753906c0 5.523438-4.480469 10-10 10h-155.003906c-17.757813 0-32.207031 14.441407-32.207031 32.199219v6.070313c3.042968-2.21875 6.519531-3.648438 10.460937-3.648438h74.054687c5.519532 0 10 4.476563 10 10 0 5.519532-4.480468 10-10 10h-72.988281c-3.039062 2.324219-8.746093 12.351563-12.15625 21.492188-1.476562 3.960937-5.253906 6.503906-9.363281 6.503906zm0 0"/><path d="m338.585938 48c-.660157 0-1.308594-.070312-1.960938-.199219-.640625-.128906-1.269531-.320312-1.867188-.570312-.601562-.25-1.179687-.558594-1.730468-.917969-.539063-.363281-1.050782-.78125-1.519532-1.242188-.460937-.460937-.882812-.96875-1.242187-1.519531-.359375-.539062-.667969-1.121093-.917969-1.730469-.25-.597656-.441406-1.230468-.570312-1.871093-.128906-.636719-.199219-1.296875-.199219-1.949219 0-.648438.070313-1.308594.199219-1.957031.128906-.632813.320312-1.261719.570312-1.871094.25-.601563.558594-1.179687.917969-1.722656.359375-.546875.78125-1.058594 1.242187-1.519531.46875-.457032.976563-.878907 1.519532-1.25.550781-.359376 1.128906-.667969 1.730468-.917969.597657-.25 1.226563-.441407 1.867188-.570313 1.292969-.261718 2.621094-.261718 3.910156 0 .640625.128906 1.273438.320313 1.871094.570313.601562.25 1.179688.558593 1.730469.917969.539062.371093 1.050781.792968 1.519531 1.25.460938.460937.878906.972656 1.238281 1.519531.359375.542969.671875 1.121093.921875 1.722656.25.609375.4375 1.238281.570313 1.871094.128906.648437.1875 1.308593.1875 1.957031 0 .652344-.058594 1.3125-.1875 1.949219-.132813.640625-.320313 1.273437-.570313 1.871093-.25.609376-.5625 1.191407-.921875 1.730469-.359375.550781-.777343 1.058594-1.238281 1.519531-.46875.460938-.980469.878907-1.519531 1.242188-.550781.359375-1.132813.667969-1.730469.917969-.601562.25-1.230469.441406-1.871094.570312-.648437.128907-1.300781.199219-1.949218.199219zm0 0"/><path d="m491.253906 484h-44.734375c-28.785156 0-52.207031-23.414062-52.207031-52.199219v-134.171875h-96.636719v116.730469c0 38.398437-31.246093 69.640625-69.652343 69.640625h-14.914063c-5.519531 0-10-4.476562-10-10s4.480469-10 10-10h14.914063c27.378906 0 49.652343-22.269531 49.652343-49.640625v-126.730469c0-5.523437 4.476563-10 10-10h116.636719c5.523438 0 10 4.476563 10 10v144.171875c0 17.753907 14.449219 32.199219 32.207031 32.199219h15.34375c-5.894531-6.101562-8.609375-11.53125-8.609375-16.941406v-163.042969c0-27.375-22.273437-49.644531-49.648437-49.644531h-122.425781c-5.523438 0-10-4.476563-10-10v-131.753906c0-5.519532 4.476562-10 10-10h155c17.757812 0 32.207031-14.441407 32.207031-32.195313v-6.074219c-3.042969 2.21875-6.515625 3.652344-10.460938 3.652344h-70.851562c-5.523438 0-10-4.480469-10-10 0-5.523438 4.476562-10 10-10h69.785156c3.039063-2.324219 8.746094-12.355469 12.15625-21.492188 1.691406-4.535156 6.382813-7.207031 11.144531-6.347656 4.761719.859375 8.226563 5.003906 8.226563 9.839844v40.421875c0 28.78125-23.421875 52.195313-52.207031 52.195313h-145v111.753906h112.421874c38.40625 0 69.652344 31.242187 69.652344 69.644531v162.355469c1.792969 3.761718 12.585938 12.671875 23.171875 19.074218 3.84375 2.320313 5.664063 6.917969 4.460938 11.242188-1.207031 4.324219-5.144531 7.3125-9.632813 7.3125zm0 0"/><path d="m166.867188 484c-2.640626 0-5.210938-1.0625-7.070313-2.929688-1.859375-1.859374-2.929687-4.429687-2.929687-7.070312 0-2.628906 1.070312-5.210938 2.929687-7.070312 2.320313-2.320313 5.769531-3.390626 9.019531-2.730469.640625.128906 1.273438.320312 1.871094.570312.609375.25 1.191406.558594 1.730469.917969.550781.363281 1.058593.78125 1.519531 1.242188 1.859375 1.859374 2.929688 4.441406 2.929688 7.070312 0 2.640625-1.070313 5.210938-2.929688 7.070312-.460938.460938-.96875.878907-1.519531 1.25-.539063.359376-1.121094.667969-1.730469.917969-.601562.25-1.230469.441407-1.871094.570313s-1.300781.191406-1.949218.191406zm0 0"/></svg>