<svg width="362" height="361" viewBox="0 0 362 361" fill="none" xmlns="http://www.w3.org/2000/svg">
<path d="M358.458 40.5H2.45767" stroke="black" stroke-opacity="0.5"/>
<path d="M358.458 1H1.45767" stroke="black" stroke-opacity="0.5"/>
<path d="M357.458 81H1.45767" stroke="black" stroke-opacity="0.5"/>
<path d="M357.458 121H1.45767" stroke="black" stroke-opacity="0.5"/>
<path d="M357.458 161H1.45767" stroke="black" stroke-opacity="0.5"/>
<path d="M357.458 201H1.45767" stroke="black" stroke-opacity="0.5"/>
<path d="M357.458 241H1.45767" stroke="black" stroke-opacity="0.5"/>
<path d="M358.458 281H2.45767" stroke="black" stroke-opacity="0.5"/>
<path d="M358.458 321H2.45767" stroke="black" stroke-opacity="0.5"/>
<path d="M358.458 358H2.45767" stroke="black" stroke-opacity="0.5"/>
<line y1="-0.5" x2="357" y2="-0.5" transform="matrix(0 1 1 0 358.458 1)" stroke="black" stroke-opacity="0.5"/>
<line y1="-0.5" x2="357" y2="-0.5" transform="matrix(0 1 1 0 318.458 1)" stroke="black" stroke-opacity="0.5"/>
<line y1="-0.5" x2="357" y2="-0.5" transform="matrix(0 1 1 0 278.458 1)" stroke="black" stroke-opacity="0.5"/>
<line y1="-0.5" x2="357" y2="-0.5" transform="matrix(0 1 1 0 238.458 1)" stroke="black" stroke-opacity="0.5"/>
<line y1="-0.5" x2="357" y2="-0.5" transform="matrix(0 1 1 0 198.458 1)" stroke="black" stroke-opacity="0.5"/>
<line y1="-0.5" x2="357" y2="-0.5" transform="matrix(0 1 1 0 158.458 1)" stroke="black" stroke-opacity="0.5"/>
<line y1="-0.5" x2="357" y2="-0.5" transform="matrix(0 1 1 0 118.458 1)" stroke="black" stroke-opacity="0.5"/>
<line y1="-0.5" x2="357" y2="-0.5" transform="matrix(0 1 1 0 78.4577 1)" stroke="black" stroke-opacity="0.5"/>
<line y1="-0.5" x2="357" y2="-0.5" transform="matrix(0 1 1 0 38.4577 1)" stroke="black" stroke-opacity="0.5"/>
<line y1="-0.5" x2="357" y2="-0.5" transform="matrix(0 1 1 0 2.45767 1)" stroke="black" stroke-opacity="0.5"/>
<line y1="-0.5" x2="504.168" y2="-0.5" transform="matrix(-0.706114 0.708098 0.708098 0.706114 358.458 1)" stroke="black" stroke-opacity="0.5"/>
<line y1="-0.5" x2="504.168" y2="-0.5" transform="matrix(0.707107 0.707107 0.707107 -0.707107 1.45767 1)" stroke="black" stroke-opacity="0.5"/>
<path d="M348.5 69.8607C363.5 49.7984 371 24.74 330 3.73999C316.5 -2.26003 306.503 1.8242 293.068 13.74M348.5 69.8607C364.937 72.5553 357.849 78.5898 347.114 87.7295C337.929 95.5492 326.075 105.642 324 117.861C314.5 122.361 318 102.406 323.5 93.9064C302.474 105.762 288.579 91.1114 282.226 83.2741M348.5 69.8607C313.261 116.993 290.828 93.8867 282.226 83.2741M295.5 175.24C295.5 175.302 296 175.485 295.999 175.548M313.5 156.24C307.302 165.124 301.861 171.311 295.999 175.548M245.5 219.24C246.039 223.908 248.044 228.955 250.105 233.861M245.5 219.24C241.782 223.387 239.127 227.378 236.693 231.036C236.291 231.641 235.894 232.238 235.5 232.824M245.5 219.24C248.795 214.731 251.127 209.922 253.353 205.333C257.544 196.691 261.356 188.833 270.5 185.24C271.114 185.134 271.808 185.044 272.516 184.952C273.551 184.817 274.615 184.679 275.5 184.483M152 223.24C121.282 239.816 112.755 258.871 115.897 274.861M118.334 282.361C110.389 279.861 93.1999 277.661 87.9999 288.861C86.3333 295.027 80.6999 307.361 71.4999 307.361C70.39 307.622 69.3333 307.866 68.3257 308.099C53.9016 311.431 49.5429 312.438 42.9999 327.861C30.4999 322.361 22.8999 334.261 30.4999 341.861C34.3333 338.694 43.5999 332.361 49.9999 332.361C62.6666 332.527 83.6809 329.393 103.5 322.361C117.836 317.274 126.184 321.597 131.313 324.253C131.729 324.468 132.124 324.673 132.5 324.861C141.282 327.951 148.847 331.569 156.726 335.338C173.073 343.158 190.774 351.625 223.5 357.361C248.7 358.961 297 361.861 309 357.361C321 352.861 331.5 333.361 318.5 317.361C285.5 281.361 278.5 274.861 254.5 255.861C253.031 254.697 250.838 253.805 248.23 253.183M118.334 282.361C124.451 295.714 139.215 306.088 156 309.661M118.334 282.361C117.23 279.953 116.405 277.445 115.897 274.861M264.102 258.361C268.701 273.722 287.898 279.509 301.5 264.861C305.975 258.57 313.554 247.636 321.732 235.211M264.102 258.361C262.107 251.699 262.358 243.117 267.5 233.74C271.591 226.281 277.024 218.039 281.604 209.861M264.102 258.361C260.929 253.77 257.356 248.449 254.343 242.901M268 41.3607C275.076 33.8808 283.95 21.8279 293.068 13.74M268 41.3607C254 49.8607 246.5 45.0607 246.5 37.8607C259 35.3607 266 29.3607 275.5 15.8607C285 2.36071 293.414 4.13996 293.068 13.74M268 41.3607C265.29 47.4581 265.028 53.4599 266.106 58.8607M266.106 58.8607C268.211 69.4036 274.922 77.5358 279 79.74C279.655 80.5137 281.064 81.8402 282.226 83.2741M266.106 58.8607C264.177 61.5047 258.585 61.652 253.008 58.8607M142 35.3607C183 9.86071 199.5 1.36071 216 5.86073C217.561 7.19872 219.371 8.2632 221.29 9.3924C227.979 13.3269 236.003 18.0472 239.5 37.8607C240.556 48.9459 246.772 55.7399 253.008 58.8607M142 35.3607C141.95 35.3915 141.901 35.4223 141.851 35.453M142 35.3607L141.851 35.453M146.5 87.74C149.167 86.0905 152.16 84.696 154.5 83.2995M146.5 87.74C150.5 74.24 145.5 54.8607 128.819 43.3607M146.5 87.74C115.251 107.069 97.9936 101.611 91.3212 90.3823M200 61.3607C199.966 61.3751 199.931 61.3895 199.897 61.4039M208.5 50.74C205.498 54.1974 202.611 57.8065 199.897 61.4039M123.5 131.74C115.397 145.24 128 168.24 152 179.74C162.28 184.666 170.803 195.535 179.188 206.74M123.5 131.74C121.37 132.842 119.5 133.874 117.834 134.839M123.5 131.74C127.047 128.847 130.071 126.389 132.77 124.24M140.5 211.74C123.427 241.504 103.979 249.475 87.2924 245.288M106.957 141.74C104.357 143.379 102.108 144.531 99 145.24C64.7074 153.064 51.5867 173.968 51.4264 194.74M106.957 141.74C99 178.74 123.5 179.74 150 209.74C164.575 226.24 180.5 268.74 219.5 255.74C220.161 255.351 221.389 255.114 222.173 254.785M106.957 141.74C109.039 140.427 111.347 138.802 114.5 136.841M114.5 136.841C115.516 136.209 116.621 135.542 117.834 134.839M114.5 136.841C116.341 131.4 115.421 125.378 112.792 119.24M67 69.8607C67 69.8607 79.134 78.4823 91.3212 90.3823M67 69.8607L66.6063 69.4519M67 69.8607C66.8686 69.7242 66.7373 69.5879 66.6063 69.4519M80.5166 242.861C86 259.861 79 270.721 69.5 271.861C57 273.361 53 285.361 49.9999 298.861C48.5 303.861 41.5 319.361 29.4999 315.361C41 321.361 20.5 341.861 19 327.861C23.0098 327.861 25.0992 318.371 26.7559 310.847C27.3715 308.051 27.9274 305.526 28.4999 303.861C34 287.861 39 269.361 41.9999 242.861C40.5717 221.912 33.1591 207.129 25.2015 191.259C24.8022 190.463 24.4014 189.664 24 188.861C18 178.861 4.45767 147.4 4.45767 103C4.45767 100.027 3.98022 96.6734 3.38019 92.4583C2.36542 85.3299 1 75.7382 1 61.3607C22.8888 24.0503 40.8179 42.67 66.6063 69.4519M80.5166 242.861C63.7944 235.008 51.271 214.876 51.4264 194.74M80.5166 242.861C82.7007 243.886 84.9648 244.704 87.2924 245.288M80.5166 242.861C82.927 243.595 85.1822 244.408 87.2924 245.288M275 345.74C267.5 336.74 248.5 341.74 228.5 341.74C196.5 336.74 172 327.74 156 309.661M156 309.661C179.04 314.566 204.946 306.429 214 274.74C215.829 268.339 217.74 261.64 222.173 254.785M115.897 274.861C112.748 265.193 105.303 252.802 87.2924 245.288M51.4264 194.74C35.0853 179.14 26.6667 151.573 24.5001 139.74C20.2888 116.74 30.5001 99.24 18.0001 84.24M231.976 238.361C230.461 240.869 229.148 243.206 227.938 245.361M231.976 238.361C233.04 236.598 234.203 234.751 235.5 232.824M231.976 238.361C209.568 247.392 194.823 227.662 180.336 208.275L180.334 208.273C179.952 207.762 179.57 207.25 179.188 206.74M227.938 245.361C192.5 252.861 178.5 211.74 160 194.74C140.5 176.821 112 168.24 117.834 134.839M227.938 245.361C226.371 248.151 224.936 250.707 223.5 252.861C223.029 253.502 222.588 254.144 222.173 254.785M227.938 245.361C227.924 245.385 227.951 245.337 227.938 245.361ZM146.5 114.142C151.723 110.749 157.329 107.687 166 103.24C169.361 101.517 175.06 97.503 178.266 94.24M146.5 114.142C142.169 116.955 138.102 119.995 132.77 124.24M146.5 114.142C140.187 113.071 134.439 112.04 129 110.784M99.3661 99.24C106.209 103.309 112.738 106.107 119.539 108.24M99.3661 99.24C104.971 105.637 109.909 112.508 112.792 119.24M99.3661 99.24C96.6232 96.1096 94.2207 93.2135 91.3212 90.3823M178.266 94.24C179.379 93.1071 180.191 92.0647 180.5 91.24C183.461 85.7035 190.68 73.6218 199.897 61.4039M178.266 94.24C178.003 94.0747 177.709 93.8876 177.386 93.682C173.017 90.904 163.345 84.7531 154.5 83.2995M154.5 83.2995C157.5 67.8607 149 50.24 138.5 43.24C137.097 41.8371 136.357 40.633 135.387 39.4177M154.5 83.2995C155.787 82.5316 156.913 81.7719 157.992 81.0443C159.169 80.2506 160.29 79.495 161.5 78.8084M281.604 209.861C283.921 200.261 278.5 188.942 275.5 184.483M281.604 209.861C296 209.861 309 217.74 316 230.28C317.934 232.727 320.231 234.46 321.732 235.211M281.604 209.861C289.24 196.225 295.89 183.103 295.999 175.548M275.5 184.483C282.411 182.951 289.151 180.498 295.999 175.548M179.188 206.74C180.5 200.24 188.6 197.44 193 202.24C201 203.84 198.5 185.24 185.5 191.74C181.5 191.74 184 187.74 187.5 187.74C194.3 183.74 192.5 180.24 191 171.74C182 169.74 177 171.24 175.5 178.74C173.9 180.74 172.302 178.335 173.5 175.74C176.5 169.24 171.5 161.74 162 169.74M162 170.24C167 173.74 165.5 182.74 162 185.24M305.756 105.861C305.397 103.868 304.601 100.453 304.458 98.1041C293.857 96.544 286.408 88.4329 282.226 83.2741M305.756 105.861C306.188 108.255 306.775 110.408 307.511 112.361M305.756 105.861C290.073 116.487 273.249 110.723 262.909 99.2928M256.5 61.24C248.794 73.0401 253.302 88.6725 262.909 99.2928M307.511 112.361C311.274 122.344 318.957 127.075 330 131.861C348.5 139.877 362.5 152.861 355 177.861C350.024 189.802 339.603 207.396 328.969 224.053M307.511 112.361C287 137.361 224.5 95.8607 253.008 58.8607M286 203.24C302.5 205.24 319.542 218.24 323.5 227.74C323.873 228.634 324.577 229.365 325.223 229.872M326 230.401C326.259 235.049 324.501 236.595 321.732 235.211M326 230.401C328.48 231.833 331.303 228.947 328.969 224.053M326 230.401C325.773 230.27 325.504 230.092 325.223 229.872M288.5 198.24C298.5 194.74 319.5 206.24 327.5 222.24C327.891 222.826 328.712 223.512 328.969 224.053M161.5 78.8084C164.588 59.2019 152.943 43.1317 141.851 35.453M161.5 78.8084C174.689 71.3274 182.697 68.2036 191.078 64.9337C193.904 63.8313 196.773 62.7122 199.897 61.4039M128.819 43.3607C130.95 42.0911 133.14 40.7794 135.387 39.4177M128.819 43.3607C125.5 42.3607 129 33.3607 135.387 39.4177M128.819 43.3607C127.182 44.3359 125.58 45.2862 124.014 46.2153M135.387 39.4177C132.555 35.8688 132.03 33.2546 136.5 32.3607C138.206 33.1424 140.014 34.1809 141.851 35.453M135.387 39.4177C137.492 38.1422 139.648 36.8228 141.851 35.453M315.5 59.74C309.5 58.94 307.667 65.0733 307.5 68.24C303 79.74 297 76.74 289 79.74C285.971 80.6488 284.129 81.9537 282.226 83.2741M315.5 59.74C315.909 59.3935 316.299 59.0609 316.668 58.74M315.5 59.74C318.747 63.3929 323.395 62.2683 326.968 58.74M301.5 46.74C300 47.0733 297 49.44 297 56.24C297 61.0733 298 69.7399 283.5 71.24C276.5 71.9641 269.1 76.84 267.5 85.24C267.401 85.7108 267.308 86.2185 267.203 86.74M301.5 46.74C301.5 48.6922 302.537 51.6795 304.5 54.2323M301.5 46.74C299.502 40.913 300.775 36.5689 303.694 33.74M301.5 46.74C302.513 47.1453 303.611 45.9074 305.256 44.6915M316.668 58.74C313.937 59.447 311.537 59.1542 309.5 58.2687C307.459 57.3816 305.782 55.8996 304.5 54.2323M316.668 58.74C318.174 57.4305 319.34 56.3147 320.122 55.24M304.5 54.2323C302.1 61.4384 302.5 61.24 297 68.24C293.5 75.24 285.167 75.74 282 76.24C275.5 76.24 270.5 81.24 267.203 86.74M267.203 86.74C266.639 89.5415 265.715 92.74 261.5 92.74C259.333 92.74 255.3 93.84 256.5 98.24C258.54 98.7331 261.03 99.2344 262.909 99.2928M331.839 49.74C329.5 46.74 324.5 47.74 321.5 49.74M331.839 49.74C331.066 53.3026 329.233 56.504 326.968 58.74M331.839 49.74C332.71 45.7214 332.232 41.2432 329.5 37.1725M326.968 58.74C325.794 55.1338 321.915 54.9041 320.122 55.24M320.122 55.24C321.902 52.7946 321.699 50.5612 319.012 46.74M329.5 37.1725C329.06 36.5165 328.561 35.8711 328 35.24C321.997 28.4863 309.542 28.0728 303.694 33.74M329.5 37.1725C323.5 35.24 316.668 41.24 318.28 45.74M318.28 45.74C318.036 45.4177 317.776 45.0846 317.5 44.74C314.913 43.2604 312.782 42.693 311 42.6628M318.28 45.74C318.542 46.0853 318.786 46.4182 319.012 46.74M318.28 30.74C313 30.74 309.5 37.74 311 42.6628M311 42.6628C309.776 42.642 308.717 42.875 307.79 43.24M303.694 33.74C303.539 36.94 302.5 41.24 305.256 44.6915M305.256 44.6915C305.981 44.1559 306.812 43.6246 307.79 43.24M326.968 44.6915C324.194 43.0685 320.508 45.3809 319.012 46.74M318.28 35.24C316.056 36.04 314 39.1725 313 43.24M308.5 35.24C306.5 36.84 306 39.74 307.79 43.24M250.105 233.861C245 229.361 240.5 230.401 235.5 232.824M250.105 233.861C251.388 236.915 252.729 239.929 254.343 242.901M254.343 242.901C254.035 244.98 252.458 250 248.23 253.183M132.77 124.24C133.5 117.74 131 113.27 129 110.784M129 110.784C125.755 110.035 122.619 109.206 119.539 108.24M119.539 108.24C119.366 108.365 119.193 108.488 119.022 108.611C115.693 110.987 112.792 113.059 112.792 119.24M91.3212 90.3823C87.6377 84.1836 87.3323 76.2631 89.9999 69.8607C97.6304 61.8669 109.222 54.9905 124.006 46.2197M222.173 254.785C229.132 251.873 240.501 251.339 248.23 253.183M321.732 235.211C322.886 233.458 324.052 231.675 325.223 229.872M328.969 224.053C327.721 226.009 326.469 227.952 325.223 229.872M262.909 99.2928C267.019 99.4205 270.598 98.0074 273 92.8607C273.957 91.9036 274.828 90.8321 275.737 89.7145C277.475 87.5762 279.351 85.2695 282.226 83.2741M124.006 46.2197L124.014 46.2153M124.006 46.2197C124.009 46.2182 124.011 46.2167 124.014 46.2153M238 245.24C247.5 250.74 245.5 233.74 238 240.24C236.396 241.63 238 245.24 238 245.24ZM120 124.24C129.5 129.74 127.5 112.74 120 119.24C118.267 121.64 119.278 123.573 120 124.24Z" stroke="black" stroke-width="2"/>
</svg>
