<?xml version="1.0" encoding="iso-8859-1"?>
<!-- Generator: Adobe Illustrator 19.0.0, SVG Export Plug-In . SVG Version: 6.00 Build 0)  -->
<svg version="1.1" id="Capa_1" xmlns="http://www.w3.org/2000/svg" xmlns:xlink="http://www.w3.org/1999/xlink" x="0px" y="0px"
	 viewBox="0 0 512 512" style="enable-background:new 0 0 512 512;" xml:space="preserve">
<path style="fill:#607D8B;" d="M32,469.333c-5.891,0-10.667-4.776-10.667-10.667c0.27-241.42,195.913-437.063,437.333-437.333
	c5.891,0,10.667,4.776,10.667,10.667s-4.776,10.667-10.667,10.667c-229.643,0.259-415.741,186.357-416,416
	C42.667,464.558,37.891,469.333,32,469.333z"/>
<g>
	<path style="fill:#455A64;" d="M10.667,448h42.667C59.224,448,64,452.776,64,458.667v42.667C64,507.224,59.224,512,53.333,512
		H10.667C4.776,512,0,507.224,0,501.333v-42.667C0,452.776,4.776,448,10.667,448z"/>
	<path style="fill:#455A64;" d="M458.667,0h42.667C507.224,0,512,4.776,512,10.667v42.667C512,59.224,507.224,64,501.333,64h-42.667
		C452.776,64,448,59.224,448,53.333V10.667C448,4.776,452.776,0,458.667,0z"/>
</g>
<path d="M53.333,512H10.667C4.776,512,0,507.224,0,501.333v-42.667C0,452.776,4.776,448,10.667,448h42.667
	C59.224,448,64,452.776,64,458.667v42.667C64,507.224,59.224,512,53.333,512z M21.333,490.667h21.333v-21.333H21.333V490.667z"/>
<path d="M501.333,64h-42.667C452.776,64,448,59.224,448,53.333V10.667C448,4.776,452.776,0,458.667,0h42.667
	C507.224,0,512,4.776,512,10.667v42.667C512,59.224,507.224,64,501.333,64z M469.333,42.667h21.333V21.333h-21.333V42.667z"/>
<path d="M32,469.333c-5.891,0-10.667-4.776-10.667-10.667c0.27-241.42,195.913-437.063,437.333-437.333
	c5.891,0,10.667,4.776,10.667,10.667s-4.776,10.667-10.667,10.667c-229.643,0.259-415.741,186.357-416,416
	C42.667,464.558,37.891,469.333,32,469.333z"/>
<g>
</g>
<g>
</g>
<g>
</g>
<g>
</g>
<g>
</g>
<g>
</g>
<g>
</g>
<g>
</g>
<g>
</g>
<g>
</g>
<g>
</g>
<g>
</g>
<g>
</g>
<g>
</g>
<g>
</g>
</svg>
