<?xml version="1.0" encoding="iso-8859-1"?>
<!-- Generator: Adobe Illustrator 19.0.0, SVG Export Plug-In . SVG Version: 6.00 Build 0)  -->
<svg version="1.1" id="Layer_1" xmlns="http://www.w3.org/2000/svg" xmlns:xlink="http://www.w3.org/1999/xlink" x="0px" y="0px"
	 viewBox="0 0 512 512" style="enable-background:new 0 0 512 512;" xml:space="preserve">
<g>
	<g>
		<path d="M405.333,277.333H266.667v-41.813h74.667c23.521,0,42.667-19.135,42.667-42.667V128c0-23.531-19.146-42.667-42.667-42.667
			h-74.667V10.667C266.667,4.771,261.896,0,256,0s-10.667,4.771-10.667,10.667v74.667h-74.667C147.146,85.333,128,104.469,128,128
			v64.854c0,23.531,19.146,42.667,42.667,42.667h74.667v41.813H106.667C83.146,277.333,64,296.469,64,320v64
			c0,23.531,19.146,42.667,42.667,42.667h138.667v74.667c0,5.896,4.771,10.667,10.667,10.667s10.667-4.771,10.667-10.667v-74.667
			h138.667C428.854,426.667,448,407.531,448,384v-64C448,296.469,428.854,277.333,405.333,277.333z M266.667,106.667h74.667
			c11.771,0,21.333,9.573,21.333,21.333v64.854c0,11.76-9.563,21.333-21.333,21.333h-74.667V106.667z M245.333,405.333H106.667
			c-11.771,0-21.333-9.573-21.333-21.333v-64c0-11.76,9.563-21.333,21.333-21.333h138.667V405.333z M245.333,214.188h-74.667
			c-11.771,0-21.333-9.573-21.333-21.333V128c0-11.76,9.563-21.333,21.333-21.333h74.667V214.188z M426.667,384
			c0,11.76-9.563,21.333-21.333,21.333H266.667V298.667h138.667c11.771,0,21.333,9.573,21.333,21.333V384z"/>
	</g>
</g>
<g>
</g>
<g>
</g>
<g>
</g>
<g>
</g>
<g>
</g>
<g>
</g>
<g>
</g>
<g>
</g>
<g>
</g>
<g>
</g>
<g>
</g>
<g>
</g>
<g>
</g>
<g>
</g>
<g>
</g>
</svg>
