<?xml version="1.0" encoding="iso-8859-1"?>
<!-- Generator: Adobe Illustrator 19.0.0, SVG Export Plug-In . SVG Version: 6.00 Build 0)  -->
<svg version="1.1" id="Capa_1" xmlns="http://www.w3.org/2000/svg" xmlns:xlink="http://www.w3.org/1999/xlink" x="0px" y="0px"
	 viewBox="0 0 512.008 512.008" style="enable-background:new 0 0 512.008 512.008;" xml:space="preserve">
<path style="fill:#F44336;" d="M338.219,355.123L188.885,205.79c-4.165-4.164-10.917-4.164-15.083,0l-76.587,76.587
	c-20.707,20.807-20.707,54.436,0,75.243l64,64c10.003,10.081,23.622,15.742,37.824,15.723h49.92
	c14.198,0.025,27.817-5.629,37.824-15.701l51.413-51.413c4.177-4.154,4.195-10.908,0.04-15.085
	C338.231,355.136,338.225,355.129,338.219,355.123z"/>
<path style="fill:#1976D2;" d="M508.885,184.456L359.552,35.123c-4.165-4.164-10.917-4.164-15.083,0L173.803,205.79
	c-4.164,4.165-4.164,10.917,0,15.083l149.333,149.333c4.165,4.164,10.917,4.164,15.083,0l170.667-170.667
	C513.049,195.374,513.049,188.622,508.885,184.456z"/>
<g>
	<path style="fill:#90A4AE;" d="M117.333,437.342H10.667C4.776,437.342,0,432.566,0,426.675c0-5.891,4.776-10.667,10.667-10.667
		h106.667c5.891,0,10.667,4.776,10.667,10.667C128,432.566,123.224,437.342,117.333,437.342z"/>
	<path style="fill:#90A4AE;" d="M309.333,480.008h-192c-5.891,0-10.667-4.776-10.667-10.667c0-5.891,4.776-10.667,10.667-10.667h192
		c5.891,0,10.667,4.776,10.667,10.667C320,475.233,315.224,480.008,309.333,480.008z"/>
</g>
<path d="M248.981,437.342h-49.963c-14.153,0.04-27.735-5.583-37.717-15.616l-64-64c-20.82-20.827-20.82-54.587,0-75.413
	L344.448,35.123c4.165-4.164,10.917-4.164,15.083,0l149.333,149.333c4.164,4.165,4.164,10.917,0,15.083L286.699,421.726
	C276.716,431.759,263.135,437.382,248.981,437.342z M352,57.758L112.384,297.374c-12.492,12.496-12.492,32.752,0,45.248l64,64
	c5.993,6.016,14.143,9.388,22.635,9.365h49.984c8.493,0.025,16.643-3.347,22.635-9.365l214.613-214.613L352,57.758z"/>
<path d="M330.667,373.342c-2.831,0.005-5.548-1.115-7.552-3.115L173.781,220.894c-4.092-4.237-3.975-10.99,0.262-15.083
	c4.134-3.992,10.687-3.992,14.82,0l149.333,149.333c4.171,4.16,4.179,10.914,0.019,15.085c-2.006,2.011-4.731,3.139-7.571,3.134
	L330.667,373.342z"/>
<path d="M117.333,437.342H10.667C4.776,437.342,0,432.566,0,426.675c0-5.891,4.776-10.667,10.667-10.667h106.667
	c5.891,0,10.667,4.776,10.667,10.667C128,432.566,123.224,437.342,117.333,437.342z"/>
<path d="M309.333,480.008h-192c-5.891,0-10.667-4.776-10.667-10.667c0-5.891,4.776-10.667,10.667-10.667h192
	c5.891,0,10.667,4.776,10.667,10.667C320,475.233,315.224,480.008,309.333,480.008z"/>
<g>
</g>
<g>
</g>
<g>
</g>
<g>
</g>
<g>
</g>
<g>
</g>
<g>
</g>
<g>
</g>
<g>
</g>
<g>
</g>
<g>
</g>
<g>
</g>
<g>
</g>
<g>
</g>
<g>
</g>
</svg>
