<?xml version="1.0" encoding="iso-8859-1"?>
<!-- Generator: Adobe Illustrator 19.0.0, SVG Export Plug-In . SVG Version: 6.00 Build 0)  -->
<svg version="1.1" id="Capa_1" xmlns="http://www.w3.org/2000/svg" xmlns:xlink="http://www.w3.org/1999/xlink" x="0px" y="0px"
	 viewBox="0 0 511.996 511.996" style="enable-background:new 0 0 511.996 511.996;" xml:space="preserve">
<path style="fill:#D32F2F;" d="M499.687,398.252c-8.592-12.082-15.463-25.3-20.416-39.275c-1.471-3.985-5.167-6.716-9.408-6.955
	c-4.295-0.491-8.408,1.881-10.133,5.845c-4.459,8.896-17.173,33.6-22.357,41.152c-14.733,19.793-14.26,47.034,1.152,66.304
	c13.737,16.984,38.641,19.616,55.625,5.879c2.161-1.748,4.131-3.718,5.879-5.879C516.004,445.774,515.861,417.638,499.687,398.252z"
	/>
<path style="fill:#F44336;" d="M287.996,74.668c-5.891,0-10.667,4.776-10.667,10.667c0,2.308,0.749,4.554,2.133,6.4L405.33,259.585
	c-2.922,24.797,6.984,49.374,26.283,65.216c9.443,6.744,15.461,17.283,16.469,28.843c3.285,21.333,12.203,26.261,19.584,26.261
	h1.323c24.427-1.92,43.008-69.483,43.008-102.571C511.996,160.001,417.788,74.668,287.996,74.668z"/>
<path style="fill:#CFD8DC;" d="M444.882,227.116l-192-192c-4.165-4.164-10.917-4.164-15.083,0L34.364,238.55
	c-45.819,45.821-45.819,120.11,0,165.931l41.152,41.152c45.821,45.819,120.11,45.819,165.931,0L444.882,242.22
	c4.164-4.165,4.164-10.917,0-15.083V227.116z"/>
<path style="fill:#455A64;" d="M245.33,245.334c-53.758,0.066-105.327-21.293-143.296-59.349c-4.092-4.237-3.975-10.99,0.262-15.083
	c4.134-3.992,10.687-3.992,14.82,0c70.859,70.712,185.589,70.712,256.448,0c4.237-4.093,10.99-3.975,15.083,0.262
	c3.993,4.134,3.993,10.687,0,14.821C350.673,224.047,299.095,245.406,245.33,245.334z"/>
<path d="M158.482,480.001c-31.137,0.091-61.014-12.285-82.965-34.368l-41.152-41.152c-45.819-45.821-45.819-120.11,0-165.931
	L237.778,35.116c4.234-3.996,10.849-3.996,15.083,0l192,192c4.164,4.165,4.164,10.917,0,15.083L241.447,445.633
	C219.492,467.709,189.617,480.085,158.482,480.001z M245.33,57.75L49.447,253.633c-37.491,37.49-37.491,98.274-0.001,135.764
	c0,0,0.001,0.001,0.001,0.001l0,0l41.152,41.152c37.49,37.491,98.274,37.491,135.764,0.001c0,0,0.001-0.001,0.001-0.001
	l195.883-195.883L245.33,57.75z"/>
<path d="M467.708,379.884c-7.403,0-16.299-4.864-19.584-26.261c-1.003-11.562-7.022-22.103-16.469-28.843
	c-14.933-12.992-26.325-26.325-26.325-68.779c0-5.891,4.776-10.667,10.667-10.667c5.891,0,10.667,4.776,10.667,10.667
	c0,36.117,8.811,43.819,19.008,52.715c13.179,10.105,21.656,25.156,23.467,41.664c0.235,1.472,0.448,2.731,0.683,3.819
	c12.755-23.682,19.887-49.983,20.843-76.864c0-106.667-83.328-181.333-202.667-181.333c-5.891,0-10.667-4.776-10.667-10.667
	c0-5.891,4.776-10.667,10.667-10.667c129.792,0,224,85.333,224,202.667c0,33.088-18.581,100.629-42.987,102.4L467.708,379.884z"/>
<path d="M469.33,480.001L469.33,480.001c-11.905-0.094-23.156-5.462-30.72-14.656c-15.498-19.263-16.024-46.564-1.28-66.411
	c5.184-7.552,17.899-32.256,22.357-41.152c1.965-3.753,5.923-6.031,10.155-5.845c4.246,0.242,7.943,2.983,9.408,6.976
	c4.926,13.971,11.784,27.184,20.373,39.253c16.194,19.387,16.337,47.543,0.341,67.093
	C492.436,474.463,481.219,479.86,469.33,480.001z M468.455,387.649c-4.779,8.981-10.069,18.56-13.419,23.467
	c-8.911,11.689-9.196,27.811-0.704,39.808c3.575,4.678,9.05,7.517,14.933,7.744l0,0c5.685-0.127,11.021-2.768,14.571-7.211
	c9.16-11.448,9.089-27.736-0.171-39.104c-6.105-7.563-11.237-15.863-15.275-24.704H468.455z"/>
<path d="M245.33,245.334c-53.785,0.149-105.394-21.231-143.317-59.371c-4.093-4.237-3.975-10.99,0.262-15.083
	c4.134-3.992,10.687-3.992,14.821,0c70.814,70.816,185.628,70.818,256.444,0.004c0.001-0.001,0.003-0.003,0.004-0.004
	c4.237-4.093,10.99-3.975,15.083,0.262c3.993,4.134,3.993,10.687,0,14.821C350.707,224.098,299.107,245.477,245.33,245.334z"/>
<g>
</g>
<g>
</g>
<g>
</g>
<g>
</g>
<g>
</g>
<g>
</g>
<g>
</g>
<g>
</g>
<g>
</g>
<g>
</g>
<g>
</g>
<g>
</g>
<g>
</g>
<g>
</g>
<g>
</g>
</svg>
