<?xml version="1.0" encoding="iso-8859-1"?>
<!-- Generator: Adobe Illustrator 19.0.0, SVG Export Plug-In . SVG Version: 6.00 Build 0)  -->
<svg version="1.1" id="Capa_1" xmlns="http://www.w3.org/2000/svg" xmlns:xlink="http://www.w3.org/1999/xlink" x="0px" y="0px"
	 viewBox="0 0 512.054 512.054" style="enable-background:new 0 0 512.054 512.054;" xml:space="preserve">
<path style="fill:#FFC107;" d="M360.587,294.423l-128,170.667c-1.511,2.146-3.814,3.604-6.4,4.053L16.054,511.169l-3.2,0.64
	c-0.697,0.176-1.416,0.248-2.133,0.213c-2.829,0.037-5.542-1.125-7.467-3.2c-2.57-2.48-3.696-6.1-2.987-9.6l0.64-3.2l42.027-210.133
	c0.447-2.587,1.905-4.89,4.053-6.4l170.667-128c4.223-3.217,10.186-2.758,13.867,1.067l128,128
	C363.345,284.237,363.804,290.2,360.587,294.423z"/>
<path style="fill:#FAFAFA;" d="M167.521,359.489L16.054,511.169l-3.2,0.64c-0.697,0.176-1.416,0.248-2.133,0.213
	c-2.829,0.037-5.542-1.125-7.467-3.2c-2.57-2.48-3.696-6.1-2.987-9.6l0.64-3.2l151.68-151.467c4.165-4.082,10.851-4.015,14.933,0.15
	C171.545,348.812,171.545,355.383,167.521,359.489z"/>
<path style="fill:#455A64;" d="M501.387,0.023H330.721c-3.246-0.002-6.316,1.474-8.341,4.011L237.046,110.7
	c-3.396,4.245-3.056,10.365,0.789,14.208l149.333,149.333c3.843,3.845,9.963,4.185,14.208,0.789l106.667-85.333
	c2.536-2.025,4.013-5.096,4.011-8.341V10.689C512.054,4.798,507.278,0.023,501.387,0.023z"/>
<circle style="fill:#FAFAFA;" cx="192.054" cy="320.023" r="42.667"/>
<path d="M10.721,512.023c-1.957,0-3.876-0.539-5.547-1.557c-0.602-0.353-1.161-0.775-1.664-1.259
	c-1.491-1.365-2.564-3.126-3.093-5.077c-0.173-0.571-0.295-1.156-0.363-1.749c-0.113-1.12-0.048-2.25,0.192-3.349l42.667-213.077
	c0.523-2.557,1.965-4.834,4.053-6.4l170.667-128c4.247-3.175,10.182-2.748,13.931,1.003l128,128
	c3.744,3.754,4.162,9.689,0.981,13.931l-128,170.667c-1.566,2.089-3.843,3.531-6.4,4.053L12.811,511.873
	C12.121,511.993,11.421,512.043,10.721,512.023z M160.054,341.356c5.891-0.011,10.675,4.757,10.686,10.648
	c0.005,2.84-1.123,5.565-3.134,7.571L43.169,483.991l174.784-34.965l120-160L223.051,174.103l-160,120L28.086,468.908
	l124.437-124.416C154.519,342.49,157.227,341.362,160.054,341.356z"/>
<path d="M394.721,277.356c-2.831,0.005-5.548-1.115-7.552-3.115L237.835,124.908c-3.845-3.843-4.185-9.963-0.789-14.208
	L322.379,4.033c2.025-2.536,5.095-4.013,8.341-4.011h170.667c5.891,0,10.667,4.776,10.667,10.667v170.667
	c0.007,3.242-1.461,6.312-3.989,8.341l-106.667,85.333C399.501,276.542,397.146,277.363,394.721,277.356z M259.681,116.567
	L395.51,252.396l95.211-76.16V21.356h-154.88L259.681,116.567z"/>
<path d="M192.054,362.689c-23.564,0-42.667-19.103-42.667-42.667s19.103-42.667,42.667-42.667s42.667,19.103,42.667,42.667
	S215.618,362.689,192.054,362.689z M192.054,298.689c-11.782,0-21.333,9.551-21.333,21.333c0,11.782,9.551,21.333,21.333,21.333
	c11.782,0,21.333-9.551,21.333-21.333C213.387,308.241,203.836,298.689,192.054,298.689z"/>
<g>
</g>
<g>
</g>
<g>
</g>
<g>
</g>
<g>
</g>
<g>
</g>
<g>
</g>
<g>
</g>
<g>
</g>
<g>
</g>
<g>
</g>
<g>
</g>
<g>
</g>
<g>
</g>
<g>
</g>
</svg>
