<?xml version="1.0" encoding="iso-8859-1"?>
<!-- Generator: Adobe Illustrator 19.0.0, SVG Export Plug-In . SVG Version: 6.00 Build 0)  -->
<svg version="1.1" id="Capa_1" xmlns="http://www.w3.org/2000/svg" xmlns:xlink="http://www.w3.org/1999/xlink" x="0px" y="0px"
	 viewBox="0 0 512.044 512.044" style="enable-background:new 0 0 512.044 512.044;" xml:space="preserve">
<path style="fill:#455A64;" d="M469.355,266.667c-5.891,0-10.667-4.776-10.667-10.667
	C458.684,126.397,353.617,21.337,224.014,21.341c-62.233,0.002-121.917,24.724-165.923,68.729
	c-4.237,4.093-10.99,3.975-15.083-0.262c-3.992-4.134-3.992-10.687,0-14.821c99.978-99.971,262.068-99.966,362.039,0.012
	C453.05,123.005,480.019,188.112,480.022,256C480.022,261.891,475.246,266.667,469.355,266.667z"/>
<path id="SVGCleanerId_0" d="M465.686,309.141c-0.623,0.005-1.245-0.052-1.856-0.171c-5.793-1.019-9.668-6.535-8.661-12.331
	c2.339-13.42,3.516-27.017,3.52-40.64c0-5.891,4.776-10.667,10.667-10.667c5.891,0,10.667,4.776,10.667,10.667
	c-0.002,14.854-1.294,29.679-3.861,44.309C475.271,305.403,470.857,309.125,465.686,309.141z"/>
<g>
	<path style="fill:#455A64;" d="M217.835,512h-0.213c-28.609-0.706-56.898-6.201-83.691-16.256c-5.52-2.074-8.314-8.229-6.24-13.749
		s8.229-8.314,13.749-6.24c24.584,9.24,50.545,14.288,76.8,14.933c5.891,0.077,10.605,4.914,10.528,10.805
		c-0.077,5.891-4.914,10.605-10.805,10.528L217.835,512z M278.912,505.877c-5.891-0.027-10.645-4.824-10.618-10.715
		c0.022-4.942,3.437-9.222,8.25-10.341c25.575-5.818,49.982-15.916,72.192-29.867c4.99-3.134,11.575-1.63,14.709,3.36
		c3.134,4.99,1.63,11.575-3.36,14.709c-24.234,15.242-50.871,26.278-78.784,32.64c-0.781,0.14-1.576,0.19-2.368,0.149
		L278.912,505.877z M401.921,435.669c-5.891-0.01-10.659-4.794-10.648-10.685c0.005-2.724,1.051-5.343,2.926-7.32
		c18.086-19.003,32.848-40.912,43.669-64.811c2.525-5.322,8.887-7.589,14.21-5.064c5.185,2.46,7.494,8.582,5.225,13.853
		c-11.817,26.054-27.935,49.932-47.68,70.635c-2.005,2.115-4.787,3.317-7.701,3.328V435.669z"/>
	<path style="fill:#455A64;" d="M83.222,467.605c-2.192-0.003-4.33-0.68-6.123-1.941c-12.183-8.547-23.604-18.133-34.133-28.651
		c-4.093-4.237-3.976-10.99,0.262-15.083c4.134-3.993,10.687-3.993,14.821,0c9.648,9.645,20.112,18.439,31.275,26.283
		c4.819,3.389,5.978,10.042,2.59,14.861c-1.999,2.843-5.258,4.534-8.734,4.531H83.222z"/>
	<path style="fill:#455A64;" d="M128.022,106.667H42.688c-5.891,0-10.667-4.776-10.667-10.667V10.667
		C32.022,4.776,36.797,0,42.688,0s10.667,4.776,10.667,10.667v74.667h74.667c5.891,0,10.667,4.776,10.667,10.667
		C138.688,101.891,133.913,106.667,128.022,106.667z"/>
</g>
<path d="M469.355,266.667c-5.891,0-10.667-4.776-10.667-10.667C458.684,126.397,353.617,21.337,224.014,21.341
	c-62.233,0.002-121.917,24.724-165.923,68.729c-4.237,4.093-10.99,3.975-15.083-0.262c-3.992-4.134-3.992-10.687,0-14.821
	c99.978-99.971,262.068-99.966,362.039,0.012C453.05,123.005,480.019,188.112,480.022,256
	C480.022,261.891,475.246,266.667,469.355,266.667z"/>
<g>
	<path id="SVGCleanerId_0_1_" d="M465.686,309.141c-0.623,0.005-1.245-0.052-1.856-0.171c-5.793-1.019-9.668-6.535-8.661-12.331
		c2.339-13.42,3.516-27.017,3.52-40.64c0-5.891,4.776-10.667,10.667-10.667c5.891,0,10.667,4.776,10.667,10.667
		c-0.002,14.854-1.294,29.679-3.861,44.309C475.271,305.403,470.857,309.125,465.686,309.141z"/>
</g>
<path d="M217.835,512h-0.213c-28.61-0.698-56.9-6.193-83.691-16.256c-5.514-2.074-8.303-8.225-6.229-13.739
	c2.074-5.514,8.225-8.303,13.739-6.229c24.584,9.24,50.545,14.288,76.8,14.933c5.891,0.077,10.605,4.914,10.528,10.805
	c-0.077,5.891-4.914,10.605-10.805,10.528L217.835,512z M278.912,505.899c-5.891-0.027-10.645-4.824-10.618-10.715
	c0.022-4.942,3.437-9.222,8.25-10.341c25.582-5.814,49.998-15.912,72.213-29.867c4.996-3.128,11.581-1.614,14.709,3.381
	c3.128,4.996,1.614,11.581-3.381,14.709c-24.243,15.202-50.879,26.201-78.784,32.533c-0.786,0.156-1.588,0.22-2.389,0.192V505.899z
	 M401.921,435.712c-5.891,0.001-10.668-4.774-10.669-10.665c-0.001-2.741,1.054-5.378,2.946-7.362
	c18.106-18.979,32.871-40.884,43.669-64.789c2.427-5.373,8.75-7.76,14.123-5.333c5.373,2.427,7.76,8.75,5.333,14.123l0,0
	c-11.824,26.048-27.95,49.92-47.701,70.613c-2.008,2.107-4.791,3.301-7.701,3.307V435.712z"/>
<path d="M83.222,467.605c-2.199,0.002-4.345-0.676-6.144-1.941c-12.177-8.555-23.597-18.14-34.133-28.651
	c-4.093-4.237-3.976-10.99,0.262-15.083c4.134-3.993,10.687-3.993,14.821,0c9.667,9.642,20.144,18.435,31.317,26.283
	c4.819,3.389,5.978,10.042,2.59,14.861c-1.999,2.843-5.258,4.534-8.734,4.531H83.222z"/>
<path d="M128.022,106.667H42.688c-5.891,0-10.667-4.776-10.667-10.667V10.667C32.022,4.776,36.797,0,42.688,0
	s10.667,4.776,10.667,10.667v74.667h74.667c5.891,0,10.667,4.776,10.667,10.667C138.688,101.891,133.913,106.667,128.022,106.667z"
	/>
<g>
</g>
<g>
</g>
<g>
</g>
<g>
</g>
<g>
</g>
<g>
</g>
<g>
</g>
<g>
</g>
<g>
</g>
<g>
</g>
<g>
</g>
<g>
</g>
<g>
</g>
<g>
</g>
<g>
</g>
</svg>
