<?xml version="1.0" encoding="iso-8859-1"?>
<!-- Generator: Adobe Illustrator 19.0.0, SVG Export Plug-In . SVG Version: 6.00 Build 0)  -->
<svg version="1.1" id="Layer_1" xmlns="http://www.w3.org/2000/svg" xmlns:xlink="http://www.w3.org/1999/xlink" x="0px" y="0px"
	 viewBox="0 0 512 512" style="enable-background:new 0 0 512 512;" xml:space="preserve">
<path style="fill:#A0BF7C;" d="M89.6,499.2V217.6h332.8v281.6H89.6z M256,320c-14.114,0-25.6,11.486-25.6,25.6
	c0,10.701,6.878,20.335,17.101,23.987l8.499,3.029l8.499-3.029c10.223-3.652,17.101-13.286,17.101-23.987
	C281.6,331.486,270.114,320,256,320z"/>
<circle style="fill:#6D7584;" cx="256" cy="345.6" r="25.6"/>
<g>
	<path style="fill:#573A32;" d="M409.6,204.8h-256V128c0-56.559,45.85-102.4,102.4-102.4S358.4,71.441,358.4,128H384
		C384,57.421,326.579,0,256,0S128,57.421,128,128v76.8h-25.6c-14.14,0-25.6,11.46-25.6,25.6v256c0,14.14,11.46,25.6,25.6,25.6h307.2
		c14.14,0,25.6-11.46,25.6-25.6v-256C435.2,216.26,423.74,204.8,409.6,204.8z M409.6,486.4H102.4v-256h307.2V486.4z"/>
	<path style="fill:#573A32;" d="M243.2,381.645V422.4h25.6v-40.755c14.865-5.299,25.6-19.379,25.6-36.045
		c0-21.171-17.229-38.4-38.4-38.4c-21.171,0-38.4,17.229-38.4,38.4C217.6,362.266,228.335,376.337,243.2,381.645z M256,332.8
		c7.066,0,12.8,5.734,12.8,12.8c0,7.066-5.734,12.8-12.8,12.8c-7.066,0-12.8-5.734-12.8-12.8C243.2,338.534,248.934,332.8,256,332.8
		z"/>
</g>
<g>
</g>
<g>
</g>
<g>
</g>
<g>
</g>
<g>
</g>
<g>
</g>
<g>
</g>
<g>
</g>
<g>
</g>
<g>
</g>
<g>
</g>
<g>
</g>
<g>
</g>
<g>
</g>
<g>
</g>
</svg>
